# xmcd
#
# Track frame offsets:
#	150
#	25465
#	70057
#	97603
#	117336
#	138929
#	189917
#	216332
#
# Disc length: 3137 seconds
#
# Revision: 0
# Processed by: cddbd v1.5.2PL0 Copyright (c) Steve Scherf et al.
# Submitted via: audiograbber 1.83.01
#
DISCID=680c3f08
DTITLE=Dire Straits - Live in Los Angeles
DYEAR=1980
DGENRE=Rock
TTITLE0=News
TTITLE1=Sultans of Swing
TTITLE2=Les Boys
TTITLE3=Portobello Belle
TTITLE4=Angel of Mercy
TTITLE5=Tunnel of Love
TTITLE6=Wild West End
TTITLE7=Where do you think y..
EXTD=
EXTT0=
EXTT1=
EXTT2=
EXTT3=
EXTT4=
EXTT5=
EXTT6=
EXTT7=
PLAYORDER=
